<svg width="91" height="16" viewBox="0 0 91 16" fill="none" xmlns="http://www.w3.org/2000/svg">
<path fill-rule="evenodd" clip-rule="evenodd" d="M15.6222 15.8183V4.09694C15.6222 1.68469 17.1595 0 19.3605 0H20.4147V2.48747H19.3605C18.2188 2.48747 17.9788 3.36244 17.9788 4.09669V5.01053H20.475V7.10475H17.9789V15.8177L15.6222 15.8183ZM85.0487 15.7911C85.5897 15.9296 86.1448 15.9974 86.7015 15.993C87.2884 16.0002 87.8736 15.9242 88.4413 15.7671C88.9332 15.6292 89.397 15.3971 89.8095 15.0825C90.1889 14.7944 90.4952 14.4122 90.7014 13.9696C90.9053 13.5066 91.0071 13.0008 90.9991 12.4902C91.0081 12.1367 90.9494 11.7849 90.8266 11.4558C90.7038 11.1267 90.5193 10.8272 90.2843 10.5751C90.0374 10.3144 89.7514 10.0984 89.4378 9.936C89.0845 9.75427 88.7109 9.62032 88.3258 9.53732L85.9691 8.98884C85.2278 8.80623 84.8683 8.46194 84.8683 7.93643C84.8657 7.76674 84.9009 7.59879 84.9711 7.4461C85.0413 7.29342 85.1445 7.16028 85.2724 7.05743C85.5474 6.81852 85.9614 6.69724 86.5016 6.69724C86.7784 6.69406 87.0542 6.73139 87.3213 6.80817C87.553 6.87596 87.7714 6.98677 87.9663 7.13542C88.1449 7.27127 88.2966 7.44278 88.4127 7.64023C88.5267 7.84068 88.6025 8.06265 88.636 8.29372L88.6568 8.42938L90.8838 7.93063L90.8571 7.8019C90.7659 7.35041 90.5946 6.92122 90.3522 6.53696C90.1008 6.1486 89.7848 5.8115 89.4196 5.54197C89.0281 5.251 88.5921 5.03328 88.1307 4.89834C87.6195 4.75165 87.0916 4.67992 86.5618 4.68518C86.0083 4.67848 85.4569 4.75809 84.9254 4.92143C84.4565 5.06808 84.0191 5.30958 83.6376 5.63246C83.2841 5.92872 82.9986 6.30549 82.8025 6.7346C82.6129 7.17092 82.5176 7.64627 82.5236 8.12624C82.5129 8.47891 82.5704 8.83017 82.6925 9.15862C82.8146 9.48708 82.9988 9.78584 83.2339 10.0367C83.49 10.2998 83.7863 10.5154 84.1102 10.6747C84.4957 10.8642 84.9004 11.0068 85.3165 11.0995L87.4747 11.5634C87.8196 11.6261 88.1448 11.7768 88.4218 12.0025C88.5155 12.0848 88.5905 12.1884 88.6411 12.3055C88.6917 12.4226 88.7167 12.5502 88.7142 12.6789C88.7168 12.8602 88.6743 13.039 88.591 13.1975C88.5077 13.356 88.3865 13.4887 88.2394 13.5823C87.909 13.819 87.4519 13.9391 86.8813 13.9391C86.216 13.9391 85.6635 13.7967 85.2398 13.5163C85.042 13.3884 84.8753 13.2136 84.7529 13.0057C84.6295 12.785 84.5528 12.5388 84.5281 12.2839L84.5121 12.1415L82.1908 12.6601L82.2049 12.7795C82.2571 13.2732 82.4135 13.7482 82.6627 14.1696C82.9182 14.5831 83.2596 14.9296 83.661 15.1829C84.0915 15.459 84.5593 15.6641 85.0485 15.7911H85.0487ZM29.9084 15.5976C30.5356 15.8685 31.2082 16.0029 31.8858 15.9928C32.4266 15.9966 32.9655 15.9253 33.4887 15.7807C33.9796 15.6421 34.4479 15.4263 34.8779 15.1405C35.4421 14.766 35.9195 14.2626 36.2747 13.6673L36.3345 13.5664C36.0236 13.3127 35.7202 13.0452 35.4176 12.7779C35.2383 12.6196 35.0589 12.4613 34.8784 12.306L34.8142 12.384C34.3469 12.953 33.6237 13.8341 31.8865 13.8341C31.5367 13.8352 31.1898 13.7667 30.8641 13.6321C30.1854 13.3352 29.6359 12.782 29.3228 12.0805C29.2006 11.7975 29.1123 11.4996 29.0597 11.1936H37.0421V10.102C37.0241 9.36204 36.8796 8.63163 36.6157 7.9459C36.2303 6.98008 35.5836 6.15568 34.7566 5.57585C33.9295 4.99602 32.9588 4.68651 31.9659 4.68606C31.2696 4.67936 30.5786 4.8142 29.9305 5.08322C29.2959 5.35702 28.7195 5.76165 28.2348 6.27345C27.7365 6.788 27.3466 7.40762 27.0904 8.09192C26.8301 8.81654 26.7011 9.58638 26.7102 10.3613C26.7013 11.1302 26.8304 11.894 27.0907 12.6121C27.3476 13.292 27.7376 13.907 28.2352 14.4169C28.712 14.9253 29.2811 15.3269 29.9084 15.5976ZM25.1405 15.8618H26.2054V13.4513H25.1466C24.7202 13.4118 24.4009 13.2663 24.171 13.007C23.8875 12.6874 23.7663 12.3042 23.7663 11.7263V7.05541H26.2055V4.98125H23.7663V2.52028H21.4418V11.8726C21.4324 12.4537 21.5158 13.0324 21.6885 13.5843C21.8417 14.0603 22.0985 14.4918 22.4382 14.8442C22.7741 15.1858 23.1761 15.4465 23.6165 15.6086C24.1072 15.7837 24.6226 15.8694 25.1405 15.8618ZM51.2319 15.8618H53.5761V9.50489C53.5833 8.88459 53.4879 8.26772 53.2943 7.68201C53.1085 7.13894 52.8193 6.64182 52.4444 6.22133C52.0779 5.80617 51.6303 5.48006 51.1326 5.26559C50.6059 5.04781 50.0441 4.93985 49.4784 4.94768C48.7934 4.93629 48.1136 5.07447 47.4816 5.35355C46.9876 5.58142 46.5407 5.90944 46.1664 6.31901V0.652472H43.842L43.8411 15.8619H46.1667L46.1676 11.0018C46.1595 10.4452 46.2243 9.89008 46.3601 9.35219C46.4687 8.92296 46.662 8.52278 46.9273 8.17786C47.1676 7.87196 47.4726 7.62989 47.8177 7.47112C48.192 7.30768 48.594 7.22706 48.9989 7.23424C49.31 7.22946 49.6187 7.29218 49.9059 7.41849C50.1774 7.54443 50.419 7.73271 50.6129 7.96962C50.8202 8.22097 50.9774 8.51388 51.075 8.83084C51.1828 9.19241 51.2353 9.56984 51.2304 9.94888L51.2319 15.8618ZM11.9619 15.8507H14.5985L8.49552 1.43493C8.38775 1.18039 8.21229 0.964333 7.99044 0.812998C7.76859 0.661663 7.50989 0.581554 7.24574 0.582396C6.98159 0.583238 6.72336 0.664994 6.50238 0.81774C6.2814 0.970487 6.10717 1.18765 6.00086 1.44288L0 15.8507H2.53555L4.06733 12.1486H10.4127L11.9619 15.8507ZM9.4688 9.82053H5.01168L7.2397 4.28019L9.4688 9.82053ZM29.1044 9.17689H34.6268C34.5582 8.86239 34.4496 8.55914 34.304 8.27542C34.1521 7.9831 33.9488 7.72408 33.7049 7.51226C33.4684 7.30758 33.1991 7.14923 32.9097 7.04468C32.6057 6.93838 32.2872 6.88555 31.967 6.88831C31.6411 6.88742 31.3171 6.94209 31.0077 7.05023C30.6909 7.16392 30.3924 7.32835 30.1229 7.53776C29.8505 7.74484 29.6189 8.00609 29.4414 8.30684C29.286 8.57589 29.1722 8.86938 29.1044 9.17626V9.17689ZM63.2141 14.7067C62.2429 15.5477 61.0216 15.9999 59.7655 15.9834C58.5094 15.9669 57.2991 15.4829 56.348 14.6167C55.3969 13.7505 54.766 12.5578 54.5666 11.2486C54.3672 9.93952 54.612 8.59812 55.258 7.46091C55.9039 6.32369 56.9095 5.46368 58.0974 5.03246C59.2853 4.60124 60.5794 4.62651 61.7514 5.10382C62.9234 5.58112 63.8981 6.47981 64.5037 7.64147C65.1094 8.80312 65.307 10.1532 65.0619 11.4536C64.821 12.7307 64.1679 13.8802 63.2141 14.7061V14.7067ZM61.7973 12.8845C61.2327 13.3738 60.5226 13.637 59.7921 13.6277C59.0616 13.6185 58.3577 13.3373 57.8044 12.8337C57.2511 12.3302 56.884 11.6367 56.7678 10.8754C56.6516 10.1142 56.7938 9.33402 57.1692 8.67256C57.5447 8.01109 58.1293 7.51077 58.8201 7.25979C59.5108 7.00881 60.2634 7.02329 60.945 7.30067C61.6266 7.57805 62.1936 8.10053 62.546 8.77599C62.8983 9.45145 63.0135 10.2365 62.8711 10.9928C62.7312 11.7353 62.3518 12.4035 61.7975 12.8839L61.7973 12.8845ZM67.6302 14.4999C68.3096 15.2163 69.1749 15.7041 70.1168 15.9017C71.0587 16.0992 72.0349 15.9977 72.9222 15.6099C73.8094 15.2221 74.5679 14.5654 75.1017 13.7228C75.6355 12.8803 75.9208 11.8896 75.9214 10.876V4.83738H73.5647V10.8757C73.5601 11.5727 73.2946 12.2395 72.826 12.7307C72.3575 13.2219 71.7239 13.4975 71.0635 13.4975C70.4032 13.4975 69.7696 13.2219 69.301 12.7307C68.8325 12.2395 68.5669 11.5727 68.5624 10.8757V4.83738H66.2057V10.8757C66.2072 12.2351 66.7195 13.5384 67.6302 14.4996V14.4999ZM42.9117 4.71193V7.15056C41.2081 7.15056 40.3553 8.49413 40.3553 9.8671V15.8879H38.0178V9.8671C38.0178 7.29519 39.7067 4.71193 42.9117 4.71193ZM81.7343 7.15056V4.71193C78.5299 4.71193 76.8404 7.29519 76.8404 9.8671V15.8759H79.1777V9.8671C79.1777 8.49413 80.0307 7.15056 81.7343 7.15056Z" fill="#262626"/>
</svg>
