<svg width="28" height="28" viewBox="0 0 28 28" fill="none" xmlns="http://www.w3.org/2000/svg">
<path d="M10.6984 18.1766C10.4768 18.1766 10.2551 18.095 10.0801 17.92C9.74177 17.5816 9.74177 17.0216 10.0801 16.6833L16.6834 10.08C17.0218 9.74165 17.5818 9.74165 17.9201 10.08C18.2584 10.4183 18.2584 10.9783 17.9201 11.3166L11.3168 17.92C11.1534 18.095 10.9201 18.1766 10.6984 18.1766Z" fill="#595959"/>
<path d="M17.3018 18.1766C17.0801 18.1766 16.8584 18.095 16.6834 17.92L10.0801 11.3166C9.74177 10.9783 9.74177 10.4183 10.0801 10.08C10.4184 9.74165 10.9784 9.74165 11.3168 10.08L17.9201 16.6833C18.2584 17.0216 18.2584 17.5816 17.9201 17.92C17.7451 18.095 17.5234 18.1766 17.3018 18.1766Z" fill="#595959"/>
<path d="M17.5 26.5417H10.5C4.16498 26.5417 1.45831 23.835 1.45831 17.5V10.5C1.45831 4.16501 4.16498 1.45834 10.5 1.45834H17.5C23.835 1.45834 26.5416 4.16501 26.5416 10.5V17.5C26.5416 23.835 23.835 26.5417 17.5 26.5417ZM10.5 3.20834C5.12165 3.20834 3.20831 5.12168 3.20831 10.5V17.5C3.20831 22.8783 5.12165 24.7917 10.5 24.7917H17.5C22.8783 24.7917 24.7916 22.8783 24.7916 17.5V10.5C24.7916 5.12168 22.8783 3.20834 17.5 3.20834H10.5Z" fill="#595959"/>
</svg>
