<svg width="16" height="16" viewBox="0 0 16 16" fill="none" xmlns="http://www.w3.org/2000/svg">
<path d="M8.93332 11.6133H7.25998C6.16665 11.6133 5.27998 10.6933 5.27998 9.56001C5.27998 9.28667 5.50665 9.06001 5.77998 9.06001C6.05332 9.06001 6.27998 9.28667 6.27998 9.56001C6.27998 10.14 6.71998 10.6133 7.25998 10.6133H8.93332C9.36665 10.6133 9.72665 10.2267 9.72665 9.76001C9.72665 9.18001 9.51998 9.06667 9.17998 8.94667L6.49332 8.00001C5.97332 7.82001 5.27332 7.43334 5.27332 6.24001C5.27332 5.21334 6.07998 4.38667 7.06665 4.38667H8.73998C9.83332 4.38667 10.72 5.30667 10.72 6.44001C10.72 6.71334 10.4933 6.94001 10.22 6.94001C9.94665 6.94001 9.71998 6.71334 9.71998 6.44001C9.71998 5.86001 9.27998 5.38667 8.73998 5.38667H7.06665C6.63332 5.38667 6.27332 5.77334 6.27332 6.24001C6.27332 6.82001 6.47998 6.93334 6.81998 7.05334L9.50665 8.00001C10.0266 8.18001 10.7266 8.56667 10.7266 9.76001C10.72 10.78 9.91998 11.6133 8.93332 11.6133Z" fill="#262626"/>
<path d="M8 12.5C7.72667 12.5 7.5 12.2733 7.5 12V4C7.5 3.72667 7.72667 3.5 8 3.5C8.27333 3.5 8.5 3.72667 8.5 4V12C8.5 12.2733 8.27333 12.5 8 12.5Z" fill="#313131"/>
<path d="M7.99998 15.1667C4.04665 15.1667 0.833313 11.9533 0.833313 8C0.833313 4.04666 4.04665 0.833328 7.99998 0.833328C11.9533 0.833328 15.1666 4.04666 15.1666 8C15.1666 11.9533 11.9533 15.1667 7.99998 15.1667ZM7.99998 1.83333C4.59998 1.83333 1.83331 4.6 1.83331 8C1.83331 11.4 4.59998 14.1667 7.99998 14.1667C11.4 14.1667 14.1666 11.4 14.1666 8C14.1666 4.6 11.4 1.83333 7.99998 1.83333Z" fill="#313131"/>
</svg>
