<svg width="16" height="16" viewBox="0 0 16 16" fill="none" xmlns="http://www.w3.org/2000/svg">
<path d="M4.1238 12.5128C3.7578 12.5128 3.4158 12.3868 3.1698 12.1528C2.8578 11.8588 2.7078 11.4148 2.7618 10.9348L2.9838 8.99078C3.0258 8.62478 3.2478 8.13878 3.5058 7.87478L8.4318 2.66078C9.6618 1.35878 10.9458 1.32278 12.2478 2.55278C13.5498 3.78278 13.5858 5.06678 12.3558 6.36878L7.4298 11.5828C7.1778 11.8528 6.7098 12.1048 6.3438 12.1648L4.4118 12.4948C4.3098 12.5008 4.2198 12.5128 4.1238 12.5128ZM10.3578 2.54678C9.8958 2.54678 9.4938 2.83478 9.0858 3.26678L4.1598 8.48678C4.0398 8.61278 3.9018 8.91278 3.8778 9.08678L3.6558 11.0308C3.6318 11.2288 3.6798 11.3908 3.7878 11.4928C3.8958 11.5948 4.0578 11.6308 4.2558 11.6008L6.1878 11.2708C6.3618 11.2408 6.6498 11.0848 6.7698 10.9588L11.6958 5.74478C12.4398 4.95278 12.7098 4.22078 11.6238 3.20078C11.1438 2.73878 10.7298 2.54678 10.3578 2.54678Z" fill="#EF4164"/>
<path d="M11.2038 7.37078C11.1918 7.37078 11.1738 7.37078 11.1618 7.37078C9.28981 7.18478 7.78381 5.76278 7.49581 3.90278C7.45981 3.65678 7.62781 3.42878 7.87381 3.38678C8.11981 3.35078 8.34781 3.51878 8.38981 3.76478C8.61781 5.21678 9.79381 6.33278 11.2578 6.47678C11.5038 6.50078 11.6838 6.72278 11.6598 6.96878C11.6298 7.19678 11.4318 7.37078 11.2038 7.37078Z" fill="#EF4164"/>
<path d="M13.3998 14.4508H2.5998C2.3538 14.4508 2.1498 14.2468 2.1498 14.0008C2.1498 13.7548 2.3538 13.5508 2.5998 13.5508H13.3998C13.6458 13.5508 13.8498 13.7548 13.8498 14.0008C13.8498 14.2468 13.6458 14.4508 13.3998 14.4508Z" fill="#EF4164"/>
</svg>
