<svg width="16" height="24" viewBox="0 0 16 24" fill="none" xmlns="http://www.w3.org/2000/svg">
<path d="M14 7.75H2C1.72667 7.75 1.5 7.41 1.5 7C1.5 6.59 1.72667 6.25 2 6.25H14C14.2733 6.25 14.5 6.59 14.5 7C14.5 7.41 14.2733 7.75 14 7.75Z" fill="#595959"/>
<path d="M14 12.75H2C1.72667 12.75 1.5 12.41 1.5 12C1.5 11.59 1.72667 11.25 2 11.25H14C14.2733 11.25 14.5 11.59 14.5 12C14.5 12.41 14.2733 12.75 14 12.75Z" fill="#595959"/>
<path d="M14 17.75H2C1.72667 17.75 1.5 17.41 1.5 17C1.5 16.59 1.72667 16.25 2 16.25H14C14.2733 16.25 14.5 16.59 14.5 17C14.5 17.41 14.2733 17.75 14 17.75Z" fill="#595959"/>
</svg>
