<svg width="16" height="16" viewBox="0 0 16 16" fill="none" xmlns="http://www.w3.org/2000/svg">
<path d="M12.6467 15.1667H3.31332C0.813324 15.1667 0.813324 13.78 0.813324 12.6667V12C0.813324 11.36 1.33999 10.8333 1.97999 10.8333H13.98C14.62 10.8333 15.1467 11.36 15.1467 12V12.6667C15.1467 13.78 15.1467 15.1667 12.6467 15.1667ZM1.97999 11.8333C1.88666 11.8333 1.81332 11.9067 1.81332 12V12.6667C1.81332 13.76 1.81332 14.1667 3.31332 14.1667H12.6467C14.1467 14.1667 14.1467 13.76 14.1467 12.6667V12C14.1467 11.9067 14.0733 11.8333 13.98 11.8333H1.97999Z" fill="#313131"/>
<path d="M13.8133 11.8333H2.17999C1.90666 11.8333 1.67999 11.6067 1.67999 11.3333V8.66666C1.67999 5.93333 3.61999 3.53333 6.28666 2.96666C6.67999 2.87999 7.09333 2.83333 7.51333 2.83333H8.47999C8.90666 2.83333 9.31999 2.87999 9.71333 2.96666C12.38 3.53999 14.3133 5.93999 14.3133 8.66666V11.3333C14.3133 11.6067 14.0933 11.8333 13.8133 11.8333ZM2.67999 10.8333H13.3133V8.66666C13.3133 6.40666 11.7133 4.41999 9.49999 3.93999C9.17333 3.86666 8.83333 3.83333 8.47999 3.83333H7.51333C7.16666 3.83333 6.82666 3.86666 6.49999 3.93999C4.28666 4.41333 2.67999 6.39999 2.67999 8.66666V10.8333Z" fill="#313131"/>
<path d="M6.39334 3.95333C6.17334 3.95333 5.97334 3.80666 5.91334 3.58666C5.86001 3.39333 5.83334 3.19999 5.83334 2.99999C5.83334 1.80666 6.80668 0.833328 8.00001 0.833328C9.19334 0.833328 10.1667 1.80666 10.1667 2.99999C10.1667 3.19999 10.14 3.39333 10.0867 3.58666C10.02 3.84 9.76668 3.99999 9.50001 3.93999C9.17334 3.86666 8.83334 3.83333 8.48001 3.83333H7.51334C7.16668 3.83333 6.82668 3.86666 6.50001 3.93999C6.46668 3.94666 6.43334 3.95333 6.39334 3.95333ZM7.51334 2.83333H8.48001C8.70668 2.83333 8.94001 2.84666 9.16001 2.87333C9.10001 2.28666 8.60001 1.83333 8.00001 1.83333C7.40001 1.83333 6.90668 2.28666 6.84001 2.87333C7.06668 2.84666 7.28668 2.83333 7.51334 2.83333Z" fill="#313131"/>
<path d="M10 7.83333H6C5.72667 7.83333 5.5 7.60666 5.5 7.33333C5.5 7.05999 5.72667 6.83333 6 6.83333H10C10.2733 6.83333 10.5 7.05999 10.5 7.33333C10.5 7.60666 10.2733 7.83333 10 7.83333Z" fill="#313131"/>
</svg>
