<svg width="16" height="16" viewBox="0 0 16 16" fill="none" xmlns="http://www.w3.org/2000/svg">
<path d="M13.3998 4.83878C13.3878 4.83878 13.3698 4.83878 13.3518 4.83878C10.1778 4.52078 7.00981 4.40078 3.87181 4.71878L2.64781 4.83878C2.39581 4.86278 2.17381 4.68278 2.14981 4.43078C2.12581 4.17878 2.30581 3.96278 2.55181 3.93878L3.77581 3.81878C6.96781 3.49478 10.2018 3.62078 13.4418 3.93878C13.6878 3.96278 13.8678 4.18478 13.8438 4.43078C13.8258 4.66478 13.6278 4.83878 13.3998 4.83878Z" fill="#EF4164"/>
<path d="M5.8998 4.23278C5.8758 4.23278 5.8518 4.23278 5.8218 4.22678C5.5818 4.18478 5.4138 3.95078 5.4558 3.71078L5.5878 2.92478C5.6838 2.34878 5.8158 1.55078 7.2138 1.55078H8.7858C10.1898 1.55078 10.3218 2.37878 10.4118 2.93078L10.5438 3.71078C10.5858 3.95678 10.4178 4.19078 10.1778 4.22678C9.9318 4.26878 9.6978 4.10078 9.6618 3.86078L9.5298 3.08078C9.4458 2.55878 9.4278 2.45678 8.7918 2.45678H7.2198C6.5838 2.45678 6.5718 2.54078 6.4818 3.07478L6.3438 3.85478C6.3078 4.07678 6.1158 4.23278 5.8998 4.23278Z" fill="#EF4164"/>
<path d="M9.92581 14.4508H6.07381C3.97981 14.4508 3.89581 13.2928 3.82981 12.3568L3.43981 6.31478C3.42181 6.06878 3.61381 5.85278 3.85981 5.83478C4.11181 5.82278 4.32181 6.00878 4.33981 6.25478L4.72981 12.2968C4.79581 13.2088 4.81981 13.5508 6.07381 13.5508H9.92581C11.1858 13.5508 11.2098 13.2088 11.2698 12.2968L11.6598 6.25478C11.6778 6.00878 11.8938 5.82278 12.1398 5.83478C12.3858 5.85278 12.5778 6.06278 12.5598 6.31478L12.1698 12.3568C12.1038 13.2928 12.0198 14.4508 9.92581 14.4508Z" fill="#EF4164"/>
<path d="M8.99581 11.1508H6.99781C6.75181 11.1508 6.54781 10.9468 6.54781 10.7008C6.54781 10.4548 6.75181 10.2508 6.99781 10.2508H8.99581C9.24181 10.2508 9.44581 10.4548 9.44581 10.7008C9.44581 10.9468 9.24181 11.1508 8.99581 11.1508Z" fill="#EF4164"/>
<path d="M9.4998 8.75078H6.4998C6.2538 8.75078 6.0498 8.54678 6.0498 8.30078C6.0498 8.05478 6.2538 7.85078 6.4998 7.85078H9.4998C9.7458 7.85078 9.9498 8.05478 9.9498 8.30078C9.9498 8.54678 9.7458 8.75078 9.4998 8.75078Z" fill="#EF4164"/>
</svg>
